<?xml version="1.0" encoding="UTF-8"?>
<svg width="56px" height="52px" viewBox="0 0 56 52" version="1.1" xmlns="http://www.w3.org/2000/svg" xmlns:xlink="http://www.w3.org/1999/xlink">
    <title>Data-driven innovators </title>
    <g id="Desktop" stroke="none" stroke-width="1" fill="none" fill-rule="evenodd" stroke-linejoin="round">
        <g id="About" transform="translate(-1005.000000, -928.000000)" stroke="#C9002A" stroke-width="2">
            <g id="Data-driven-innovators-" transform="translate(1006.000000, 929.000000)">
                <path d="M40,20 C40,31.046 31.046,40 20,40 C8.954,40 0,31.046 0,20 C0,8.954 8.954,0 20,0 C31.046,0 40,8.954 40,20 Z" id="Stroke-1"></path>
                <path d="M18,6.1592 C11.873,7.0382 7.038,11.8732 6.159,18.0002" id="Stroke-3" stroke-linecap="round"></path>
                <path d="M30.8105,36.8101 L42.7575,48.7581 C44.4145,50.4141 47.0985,50.4141 48.7535,48.7581 L48.7575,48.7541 C50.4145,47.0991 50.4145,44.4141 48.7575,42.7581 L36.8105,30.8101" id="Stroke-5" stroke-linecap="round"></path>
                <line x1="42" y1="28" x2="54" y2="28" id="Stroke-7" stroke-linecap="round"></line>
                <line x1="12" y1="20" x2="12" y2="24" id="Stroke-9" stroke-linecap="round"></line>
                <line x1="16" y1="24" x2="16" y2="18" id="Stroke-11" stroke-linecap="round"></line>
                <line x1="20" y1="24" x2="20" y2="14" id="Stroke-13" stroke-linecap="round"></line>
                <line x1="24" y1="24" x2="24" y2="11" id="Stroke-15" stroke-linecap="round"></line>
                <line x1="28" y1="24" x2="28" y2="10" id="Stroke-17" stroke-linecap="round"></line>
                <line x1="32" y1="24" x2="32" y2="12" id="Stroke-19" stroke-linecap="round"></line>
                <line x1="36" y1="24" x2="36" y2="17" id="Stroke-21" stroke-linecap="round"></line>
                <line x1="44" y1="24" x2="44" y2="8" id="Stroke-23" stroke-linecap="round"></line>
                <line x1="48" y1="24" x2="48" y2="4" id="Stroke-25" stroke-linecap="round"></line>
                <line x1="52" y1="24" x2="52" y2="10" id="Stroke-27" stroke-linecap="round"></line>
                <line x1="38.3242" y1="28" x2="10.0002" y2="28" id="Stroke-29" stroke-linecap="round"></line>
            </g>
        </g>
    </g>
</svg>