<?xml version="1.0" encoding="UTF-8"?>
<svg width="67px" height="57px" viewBox="0 0 67 57" version="1.1" xmlns="http://www.w3.org/2000/svg" xmlns:xlink="http://www.w3.org/1999/xlink">
    <title>Friendly build</title>
    <g id="Desktop" stroke="none" stroke-width="1" fill="none" fill-rule="evenodd" stroke-linecap="round" stroke-linejoin="round">
        <g id="Home---Freelance-Platform" transform="translate(-635.000000, -1067.000000)" stroke="#00009D" stroke-width="2.51999998">
            <g id="Friendly-build" transform="translate(637.000000, 1069.000000)">
                <g id="Group-10">
                    <path d="M12.5999999,47.8799996 L12.5999999,47.8799996 C12.5999999,50.6633396 14.8566599,52.9199996 17.6399999,52.9199996 L30.6482398,52.9199996 C32.4147598,52.9199996 34.0527597,51.4772996 34.0187397,49.7120396 C34.0061397,49.0215596 33.7629597,48.3915596 33.3736197,47.8787396 L33.3899997,47.8799996 C34.3564197,47.9757596 35.3379597,47.5788596 35.8759797,46.7711996 C36.9205197,45.1987197 36.6269397,43.6413597 35.7285597,42.6383997 C36.9343797,42.1961397 37.7999997,41.0495397 37.7999997,39.6899997 C37.7999997,38.5673397 37.2090597,37.5895797 36.3245397,37.0313997 C36.5551197,36.4303797 36.6294597,35.7524997 36.4026597,35.0229597 C35.9704797,33.6394797 34.6008597,32.7599998 33.1518597,32.7599998 L26.4599998,32.7599998 C25.7644798,32.7599998 25.1999998,32.1955198 25.1999998,31.4999998 L25.1999998,23.9399998 C25.1999998,21.8521798 23.5078198,20.1599998 21.4199998,20.1599998 L20.1599998,20.1599998 L20.1599998,25.1999998 C20.1599998,29.3743798 16.7743799,32.7599998 12.5999999,32.7599998" id="Stroke-4"></path>
                    <path d="M42.8399997,40.3199997 L45.3599997,40.3199997 L45.3599997,50.3999996 L55.4399996,40.3199997 L59.2199996,40.3199997 C61.3065595,40.3199997 62.9999995,38.6278197 62.9999995,36.5399997 L62.9999995,3.77999997 C62.9999995,1.69217999 61.3065595,0 59.2199996,0 L11.3399999,0 C9.25217993,0 7.55999994,1.69217999 7.55999994,3.77999997 L7.55999994,32.7599998" id="Stroke-6"></path>
                    <path d="M5.03999996,52.9199996 L10.0799999,52.9199996 C11.4710399,52.9199996 12.5999999,51.7910396 12.5999999,50.3999996 L12.5999999,32.7599998 L0,32.7599998" id="Stroke-8"></path>
                </g>
                <line x1="50.3999996" y1="12.5999999" x2="20.1599998" y2="12.5999999" id="Stroke-1"></line>
                <line x1="50.3999996" y1="27.7199998" x2="35.2799997" y2="27.7199998" id="Stroke-2"></line>
                <line x1="30.2399998" y1="20.1599998" x2="50.3999996" y2="20.1599998" id="Stroke-3"></line>
            </g>
        </g>
    </g>
</svg>