<svg xmlns="http://www.w3.org/2000/svg" width="51" height="50" viewBox="0 0 51 50">
    <g fill="#C9002A" fill-rule="evenodd">
        <path d="M44.599 27.753c-.542 0-.981-.439-.981-.979 0-.542-.023-1.084-.07-1.613-.047-.54.349-1.015.889-1.064.542-.043 1.015.353 1.062.89.054.586.08 1.186.08 1.787 0 .54-.44.979-.98.979M23.527 8.728c-.497 0-.923-.376-.974-.882-.054-.536.337-1.017.877-1.073.956-.097 1.949-.124 2.907-.084.54.023.96.48.938 1.02-.022.542-.472.965-1.021.938-.87-.038-1.762-.014-2.628.076-.034.005-.065.005-.1.005m9.91 1.633c-.137 0-.277-.029-.407-.09-.797-.364-1.625-.672-2.462-.918-.52-.15-.817-.695-.666-1.215.153-.52.695-.816 1.217-.666.927.273 1.845.615 2.725 1.017.493.228.709.808.484 1.3-.164.359-.52.572-.891.572m-16.936.502c-.35 0-.688-.189-.866-.52-.254-.477-.072-1.07.405-1.325.855-.457 1.753-.853 2.664-1.179.508-.182 1.07.086 1.253.594.182.509-.085 1.069-.594 1.251-.821.295-1.631.653-2.4 1.064-.15.079-.307.115-.462.115m22.9 3.782c-.26 0-.521-.103-.713-.308-.6-.637-1.25-1.235-1.935-1.777-.423-.336-.495-.952-.157-1.377.337-.423.952-.493 1.375-.158.758.6 1.478 1.265 2.144 1.969.371.394.35 1.015-.043 1.386-.189.178-.43.265-.67.265m-28.602.846c-.223 0-.444-.074-.63-.227-.414-.349-.47-.965-.122-1.38.621-.744 1.3-1.446 2.023-2.092.403-.362 1.021-.326 1.384.077.36.403.326 1.024-.077 1.384-.652.582-1.267 1.217-1.827 1.887-.193.232-.472.351-.751.351m32.519 5.369c-.392 0-.763-.239-.914-.628-.315-.814-.693-1.613-1.125-2.374-.265-.472-.099-1.068.372-1.336.472-.266 1.068-.101 1.334.371.477.844.898 1.728 1.246 2.633.196.504-.056 1.07-.56 1.266-.117.045-.236.068-.353.068m-36.06 1.064c-.1 0-.201-.016-.3-.047-.515-.164-.799-.716-.635-1.231.295-.922.66-1.83 1.085-2.7.238-.486.826-.686 1.312-.45.486.239.688.826.45 1.312-.385.785-.716 1.604-.98 2.434-.134.417-.519.682-.933.682M6.35 27.753c-.54 0-.98-.439-.98-.979 0-.594.027-1.195.08-1.786.048-.538.514-.934 1.06-.891.54.05.939.524.892 1.064-.048.533-.07 1.078-.07 1.613 0 .54-.439.979-.981.979M25.475 27.553c-1.015 0-1.84.826-1.84 1.84 0 .493.184.95.521 1.294.351.351.822.55 1.319.55 1.017 0 1.843-.827 1.843-1.844 0-.488-.187-.95-.525-1.291-.35-.353-.82-.55-1.318-.55m0 5.644c-1.02 0-1.982-.4-2.711-1.13-.707-.717-1.09-1.665-1.09-2.673 0-2.094 1.704-3.8 3.801-3.8 1.02 0 1.982.4 2.711 1.13.707.72 1.09 1.665 1.09 2.67 0 2.097-1.704 3.803-3.801 3.803"/>
        <path d="M27.493 28.395c-.252 0-.506-.096-.698-.292-.38-.387-.375-1.006.012-1.386l8.53-8.4c.384-.38 1.005-.375 1.385.01.38.387.376 1.008-.01 1.388l-8.53 8.4c-.192.186-.442.28-.689.28M21.899 33.892c-.252 0-.506-.097-.698-.293-.38-.384-.375-1.005.01-1.386l1.556-1.536c.385-.38 1.006-.378 1.386.009.38.384.376 1.003-.006 1.383l-1.56 1.54c-.19.188-.438.283-.688.283M17.02 44.172c-1.05 0-1.903.853-1.903 1.903 0 1.049.853 1.904 1.904 1.904H33.14c1.05 0 1.903-.855 1.903-1.904 0-1.05-.852-1.903-1.903-1.903H17.02zm16.12 5.767H17.02c-2.13 0-3.862-1.735-3.862-3.864 0-2.13 1.732-3.863 3.863-3.863H33.14c2.13 0 3.863 1.733 3.863 3.863 0 2.129-1.732 3.864-3.863 3.864z"/>
        <path d="M6.831 42.334c-.277 0-.551-.117-.747-.344C2.16 37.386 0 31.52 0 25.475 0 11.428 11.428 0 25.475 0 39.52 0 50.949 11.428 50.949 25.475c0 6.045-2.16 11.911-6.084 16.515-.353.411-.972.46-1.381.11-.412-.351-.462-.97-.11-1.382 3.622-4.248 5.615-9.661 5.615-15.243 0-12.967-10.548-23.515-23.514-23.515C12.508 1.96 1.96 12.508 1.96 25.475c0 5.582 1.996 10.995 5.618 15.243.349.412.3 1.03-.11 1.382-.185.157-.412.234-.637.234"/>
    </g>
</svg>
