<svg xmlns="http://www.w3.org/2000/svg" width="51" height="51" viewBox="0 0 51 51">
    <g fill="#C9002A" fill-rule="evenodd">
        <path d="M47.782 41.992l-10.523-.108c-.543-.005-.975-.448-.97-.988.007-.54.443-.972.979-.972h.009l10.514.108c.657 0 1.2-.542 1.2-1.208V11.36H1.96v27.464c0 .666.542 1.208 1.208 1.208h9.884c.545 0 .981.437.981.979s-.436.981-.98.981H3.168C1.423 41.992 0 40.57 0 38.824V10.379c0-.54.436-.978.979-.978H49.97c.54 0 .979.438.979.978v28.445c0 1.746-1.422 3.168-3.168 3.168"/>
        <path d="M1.96 9.4h47.03V3.168c0-.664-.543-1.209-1.209-1.209H3.168c-.666 0-1.208.545-1.208 1.209V9.4zm48.01 1.96H.98C.437 11.36 0 10.92 0 10.38V3.168C0 1.422 1.422 0 3.168 0h44.613c1.748 0 3.168 1.422 3.168 3.168v7.213c0 .54-.439.979-.979.979z"/>
        <path d="M35.96 5.68c0 .702-.569 1.271-1.27 1.271-.703 0-1.272-.57-1.272-1.271 0-.702.57-1.271 1.271-1.271.702 0 1.272.569 1.272 1.27M40.621 5.68c0 .702-.57 1.271-1.269 1.271-.704 0-1.273-.57-1.273-1.271 0-.702.569-1.271 1.273-1.271.7 0 1.27.569 1.27 1.27M45.284 5.68c0 .702-.57 1.271-1.272 1.271-.702 0-1.271-.57-1.271-1.271 0-.702.57-1.271 1.271-1.271.702 0 1.272.569 1.272 1.27M25.475 18.325c-5.949 0-10.789 4.838-10.789 10.787 0 .52.039 1.033.108 1.525.228 1.614.804 3.121 1.72 4.485 1.516 2.252 3.786 3.838 6.396 4.466 1.643.41 3.431.414 5.121.009 2.624-.641 4.898-2.23 6.404-4.475.904-1.337 1.496-2.883 1.72-4.482.07-.5.107-1.013.107-1.528 0-5.95-4.838-10.787-10.787-10.787m0 23.533c-1.037 0-2.056-.124-3.033-.367-3.078-.74-5.762-2.616-7.555-5.278-1.067-1.586-1.769-3.418-2.032-5.301-.083-.58-.126-1.188-.126-1.8 0-7.03 5.717-12.746 12.746-12.746 7.03 0 12.746 5.717 12.746 12.746 0 .607-.042 1.215-.126 1.802-.263 1.89-.965 3.724-2.034 5.301-1.775 2.65-4.464 4.53-7.569 5.288-.992.236-2.004.355-3.017.355"/>
        <path d="M25.475 50.56c-.542 0-.98-.44-.98-.982v-8.674c0-.54.438-.98.98-.98.54 0 .981.44.981.98v8.674c0 .542-.44.981-.98.981M32.706 29.832c-.54 0-.98-.438-.98-.98 0-3.448-2.804-6.251-6.251-6.251-.542 0-.979-.439-.979-.979 0-.544.437-.98.979-.98 4.53 0 8.212 3.682 8.212 8.21 0 .542-.438.98-.98.98"/>
    </g>
</svg>
