<svg xmlns="http://www.w3.org/2000/svg" width="20" height="21" viewBox="0 0 20 21">
    <path fill="#00009D" fill-rule="evenodd" d="M16.955 17.58h-3.02v-5.075c0-1.274-.438-2.143-1.53-2.143-.835 0-1.333.586-1.552 1.153-.079.202-.099.485-.099.77v5.295h-3.02s.04-8.595 0-9.483h3.02V9.44c.402-.645 1.12-1.565 2.724-1.565 1.987 0 3.477 1.355 3.477 4.269v5.437zM4.553 6.802h-.021c-1.013 0-1.669-.728-1.669-1.638 0-.93.676-1.638 1.709-1.638s1.67.708 1.69 1.638c0 .91-.657 1.638-1.71 1.638zM3.042 17.58h3.02V8.097h-3.02v9.483zM18.522 0H1.477C.662 0 0 .674 0 1.504v17.992C0 20.326.662 21 1.477 21h17.045c.816 0 1.478-.674 1.478-1.504V1.504C20 .674 19.338 0 18.522 0z"/>
</svg>
