<svg xmlns="http://www.w3.org/2000/svg" width="24" height="20" viewBox="0 0 24 20">
    <path fill="#00009D" fill-rule="evenodd" d="M24 2.367c-.883.402-1.832.673-2.828.795 1.017-.625 1.797-1.615 2.165-2.794-.952.58-2.005 1-3.127 1.226C19.312.614 18.032 0 16.617 0c-2.72 0-4.925 2.26-4.925 5.049 0 .395.043.78.128 1.15C7.727 5.99 4.099 3.98 1.67.924c-.424.746-.666 1.612-.666 2.538 0 1.752.87 3.297 2.19 4.202-.806-.026-1.567-.253-2.23-.631v.064c0 2.446 1.697 4.486 3.95 4.95-.414.116-.848.177-1.297.177-.319 0-.627-.031-.928-.09.628 2.006 2.446 3.466 4.6 3.507-1.685 1.354-3.808 2.16-6.116 2.16-.396 0-.788-.023-1.173-.07C2.179 19.164 4.768 20 7.548 20c9.057 0 14.008-7.694 14.008-14.366 0-.22-.002-.437-.012-.653.96-.713 1.796-1.602 2.456-2.614"/>
</svg>
