<svg xmlns="http://www.w3.org/2000/svg" width="25" height="25" viewBox="0 0 25 25">
    <path fill="#C9002A" d="M18.026 8.534c.381.381.381 1 0 1.38l-6.552 6.552c-.381.382-1 .382-1.38 0l-3.12-3.119c-.381-.38-.381-1 0-1.38.382-.382 1-.382 1.381 0l2.429 2.428 5.86-5.861c.382-.382 1-.382 1.382 0zM25 12.5C25 19.41 19.408 25 12.5 25 5.59 25 0 19.408 0 12.5 0 5.59 5.592 0 12.5 0 19.41 0 25 5.592 25 12.5zm-1.953 0c0-5.83-4.718-10.547-10.547-10.547-5.83 0-10.547 4.718-10.547 10.547 0 5.83 4.718 10.547 10.547 10.547 5.83 0 10.547-4.718 10.547-10.547z"/>
</svg>
