<svg xmlns="http://www.w3.org/2000/svg" width="23" height="19" viewBox="0 0 23 19">
    <path fill="#00009D" fill-rule="evenodd" d="M2.727 3.876c.029-.294-.079-.584-.29-.782L.29.402V0h6.668l5.154 11.762L16.643 0H23v.402l-1.836 1.832c-.158.126-.237.332-.204.536v13.46c-.033.204.046.41.204.536l1.793 1.832V19h-9.02v-.402l1.858-1.877c.183-.19.183-.245.183-.536V5.305l-5.165 13.65h-.698L4.102 5.305v9.149c-.05.384.072.772.333 1.05l2.416 3.05v.401H0v-.402l2.416-3.05c.258-.278.374-.668.311-1.05V3.877z"/>
</svg>
