<svg xmlns="http://www.w3.org/2000/svg" width="21" height="16" viewBox="0 0 21 16">
    <g fill="#C9002A">
        <path d="M18.68 0H1.8c-.277 0-.536.068-.771.18L10.2 9.352l2.056-1.976L19.451.18C19.217.068 18.957 0 18.68 0zM20.3 1.03L13.529 7.8l6.77 6.771c.113-.235.181-.494.181-.771v-12c0-.277-.068-.536-.18-.77zM.18 1.029C.068 1.264 0 1.523 0 1.8v12c0 .277.068.536.18.771L6.952 7.8.18 1.029z"/>
        <path d="M12.68 8.649l-2.056 1.975c-.117.117-.27.176-.424.176-.153 0-.307-.059-.424-.176L7.8 8.648 1.029 15.42c.234.113.494.181.771.181h16.88c.277 0 .536-.068.771-.18l-6.77-6.771z"/>
    </g>
</svg>
