<?xml version="1.0" encoding="UTF-8"?>
<svg width="58px" height="54px" viewBox="0 0 58 54" version="1.1" xmlns="http://www.w3.org/2000/svg" xmlns:xlink="http://www.w3.org/1999/xlink">
    <title>Group 23</title>
    <g id="Desktop" stroke="none" stroke-width="1" fill="none" fill-rule="evenodd" stroke-linejoin="round">
        <g id="Home---HR-platform" transform="translate(-313.000000, -1047.000000)" stroke="#C9002A" stroke-width="2.18400001">
            <g id="Group-23" transform="translate(315.000000, 1049.000000)">
                <line x1="20.7480001" y1="50.2320002" x2="21.8400001" y2="43.6800001" id="Stroke-1" stroke-linecap="round"></line>
                <line x1="37.1280001" y1="50.2320002" x2="17.4720001" y2="50.2320002" id="Stroke-3" stroke-linecap="round"></line>
                <line x1="32.7600001" y1="43.6800001" x2="33.8520001" y2="50.2320002" id="Stroke-5" stroke-linecap="round"></line>
                <path d="M10.92,4.36800001 L3.27600001,4.36800001 C1.466556,4.36800001 0,5.83455602 0,7.64400002 L0,40.4040001 C0,42.2134441 1.466556,43.6800001 3.27600001,43.6800001 L51.3240002,43.6800001 C53.1334442,43.6800001 54.6000002,42.2134441 54.6000002,40.4040001 L54.6000002,7.64400002 C54.6000002,5.83455602 53.1334442,4.36800001 51.3240002,4.36800001 L41.4960001,4.36800001" id="Stroke-7" stroke-linecap="round"></path>
                <line x1="0" y1="37.1280001" x2="54.6000002" y2="37.1280001" id="Stroke-9"></line>
                <line x1="39.3120001" y1="32.7600001" x2="39.3120001" y2="25.1160001" id="Stroke-11" stroke-linecap="round"></line>
                <line x1="43.6800001" y1="32.7600001" x2="43.6800001" y2="18.5640001" id="Stroke-13" stroke-linecap="round"></line>
                <line x1="48.0480001" y1="32.7600001" x2="48.0480001" y2="12.012" id="Stroke-15" stroke-linecap="round"></line>
                <path d="M39.3120001,13.104 C39.3120001,5.86731602 33.4446841,0 26.2080001,0 L26.2080001,13.104 L39.3120001,13.104 Z" id="Stroke-17"></path>
                <path d="M34.9440001,17.4720001 C34.9440001,24.7086841 29.0766841,30.5760001 21.8400001,30.5760001 C14.603316,30.5760001 8.73600003,24.7086841 8.73600003,17.4720001 C8.73600003,10.235316 14.603316,4.36800001 21.8400001,4.36800001 L21.8400001,17.4720001 L34.9440001,17.4720001 Z" id="Stroke-19"></path>
                <line x1="21.8400001" y1="17.4720001" x2="12.57438" y2="26.7376201" id="Stroke-21"></line>
            </g>
        </g>
    </g>
</svg>