<?xml version="1.0" encoding="UTF-8"?>
<svg width="68px" height="59px" viewBox="0 0 68 59" version="1.1" xmlns="http://www.w3.org/2000/svg" xmlns:xlink="http://www.w3.org/1999/xlink">
    <title>Secure</title>
    <g id="Desktop" stroke="none" stroke-width="1" fill="none" fill-rule="evenodd" stroke-linejoin="round">
        <g id="Home---Freelance-Platform" transform="translate(-314.000000, -1065.000000)" stroke="#00009D" stroke-width="2.4000001">
            <g id="Secure" transform="translate(316.000000, 1067.000000)">
                <line x1="26.400001" y1="55.2000022" x2="26.400001" y2="48.0000019" id="Stroke-1"></line>
                <line x1="43.2000017" y1="55.2000022" x2="21.6000009" y2="55.2000022" id="Stroke-3" stroke-linecap="round"></line>
                <line x1="38.4000015" y1="48.0000019" x2="38.4000015" y2="55.2000022" id="Stroke-5"></line>
                <path d="M32.4000013,38.4000015 C32.4000013,38.4000015 48.0000019,32.4540013 48.0000019,19.2000008 L48.0000019,4.80000019 C48.0000019,4.80000019 41.0184016,0 32.4000013,0 C23.7816009,0 16.8000007,4.80000019 16.8000007,4.80000019 L16.8000007,19.2000008 C16.8000007,32.4540013 32.4000013,38.4000015 32.4000013,38.4000015 Z" id="Stroke-7"></path>
                <path d="M16.8000007,4.80000019 L2.4000001,4.80000019 C1.07520004,4.80000019 0,5.87520023 0,7.20000029 L0,45.6000018 C0,46.9248019 1.07520004,48.0000019 2.4000001,48.0000019 L62.4000025,48.0000019 C63.7248025,48.0000019 64.8000026,46.9248019 64.8000026,45.6000018 L64.8000026,7.20000029 C64.8000026,5.87520023 63.7248025,4.80000019 62.4000025,4.80000019 L48,4.80000019" id="Stroke-9"></path>
                <polyline id="Stroke-11" stroke-linecap="round" points="40.8000016 14.4000006 36.0012014 19.2000008 31.1988012 24.000001 26.400001 19.2000008"></polyline>
                <line x1="30.0000012" y1="43.2000017" x2="34.8000014" y2="43.2000017" id="Stroke-13" stroke-linecap="round"></line>
            </g>
        </g>
    </g>
</svg>